<svg width="415" height="205" viewBox="0 0 415 205" fill="none" xmlns="http://www.w3.org/2000/svg">
<path d="M8.41681 96.7984C13.2885 93.4244 25.8432 91.8028 25.8432 91.9789C25.8432 91.9789 20.3227 99.8245 14.2637 103.841C11.6973 105.541 8.00472 107.58 6.25433 103.686C5.34037 101.655 5.65863 98.7148 8.42089 96.7984M16.6424 107.564C24.9292 102.257 31.9552 91.4712 33.3139 91.2623C39.9034 90.2509 57.6398 87.6139 74.5357 87.6139C92.8516 87.6139 109.841 91.6964 109.841 91.6964C110.021 91.5162 110.388 90.0585 109.674 89.1658C106.973 85.7754 77.8448 84.1252 73.2301 84.1252C58.1131 84.1252 41.1315 86.3855 36.6923 86.9792C35.7947 87.098 35.9823 87.1594 39.5362 82.5159C59.276 55.9246 87.0129 6.13643 87.0129 3.99487C87.0129 2.03348 84.169 0.424244 83.8099 0.784583C83.455 1.14083 59.4473 48.4353 29.397 87.5156C26.0227 87.7204 20.9347 88.1626 16.2466 89.043C9.09412 90.3861 1.68455 93.0067 0.995007 101.54C0.29322 110.205 9.46133 112.154 16.6383 107.559L16.6424 107.564Z" fill="#FAF3EB"/>
<path d="M236.489 66.0755C231.765 68.8681 229.778 69.0688 230.345 66.6897C231.61 61.3665 240.696 52.6856 245.694 52.9354C247.216 53.0132 249.203 56.0597 247.718 57.8164C247.179 58.4551 246.106 59.2987 244.05 60.8219C243.56 61.1863 237.701 65.3589 236.489 66.0755ZM275.479 57.153C269.983 61.5753 265.895 64.2902 262.553 65.7397C259.763 66.9518 253.516 68.9541 253.793 63.852C253.887 62.0667 254.716 59.6467 256.295 56.7845C257.914 53.8363 258.122 53.1156 257.392 52.3826C256.295 51.2811 255.564 51.4654 253.553 53.1156L251.725 54.5815L250.811 52.7471C249.713 50.5482 247.706 49.4467 245.148 49.4467C243.136 49.4467 240.761 50.1796 238.203 51.6456C229.247 56.7804 223.037 67.9673 227.603 70.7189C230.891 72.7377 236.922 70.5347 245.327 64.1182L249.713 60.8178C249.713 62.5008 249.546 64.6464 250.048 66.2352C251.178 69.8099 255.005 71.2226 258.963 70.5183C261.456 70.072 264.451 68.8395 268.172 66.6856C272.558 64.1469 279.462 58.8319 283.126 55.163C283.138 55.1548 283.154 55.1466 283.158 55.1302C283.509 53.6684 280.763 52.8208 280.714 52.8576C279.013 54.1516 276.765 56.117 275.484 57.1489L275.479 57.153ZM233.996 54.7699C222.119 62.4721 211.703 67.0582 207.684 67.0582C203.297 67.0582 203.656 63.938 208.781 55.6871C211.515 51.2811 210.552 51.2361 209.822 50.5031C209.275 49.9544 209.556 49.7497 209.01 49.7497C208.324 49.7497 207.165 50.2206 207.165 50.2206C206.357 51.1132 205.419 52.4399 204.215 54.2253C203.02 55.9901 201.947 58.0498 201.155 60.003C200.396 61.8784 200.254 63.7046 200.254 64.8839C200.254 70.031 204.815 71.673 209.826 70.6698C214.681 69.6994 220.977 66.5341 222.825 65.6087C228.305 62.857 233.85 58.6722 238.754 55.1425C240.982 53.5373 242.41 52.3908 242.41 52.0264C242.043 50.1919 239.668 50.9249 233.821 54.7781H234.005L233.996 54.7699ZM184.321 64.5113C176.748 68.213 171.219 69.2571 166.927 68.344C162.545 67.4104 161.81 64.3106 164.915 58.9916C166.466 56.1948 170.244 52.7389 172.251 51.9731C173.565 51.4736 174.218 52.3294 174.234 53.6725C174.263 55.941 175.332 56.6084 176.793 56.6084C179.898 56.6084 178.437 50.3721 174.965 49.0904C169.481 47.0717 161.443 53.4923 159.248 61.7432C158.718 63.6391 158.909 65.4736 159.652 67.0378C162.839 73.7532 173.161 72.2053 178.869 70.4774C180.559 69.9655 182.236 69.38 183.737 68.7125C190.686 65.6087 199.27 60.6417 204.934 56.4241C207.308 54.5897 208.81 53.1197 208.773 52.5751C208.642 50.6219 208.316 48.9635 207.639 49.549C205.154 51.7029 203.061 53.611 199.858 55.6707C194.656 59.0161 187.919 62.7546 184.316 64.5113H184.321ZM133.49 67.0582C129.104 67.0951 129.471 63.9421 134.588 55.6871C136.142 53.1934 136.934 51.8175 137.191 50.9617C137.391 50.3066 136.056 51.4408 135.742 51.1255C135.195 50.5768 134.889 50.11 134.343 50.11C133.796 50.11 134.441 49.545 133.788 50.1469C132.858 51.0027 131.54 51.9772 130.022 54.2212C127.664 57.7181 125.636 62.6564 125.636 65.0395C125.636 66.9477 126.668 68.5487 128.276 69.3841C134.049 72.3937 142.095 67.9673 147.199 65.404C152.683 62.6523 159.627 58.6189 164.56 55.1343C166.756 53.4841 168.261 52.3785 168.216 52.0182C168.143 51.4244 171.746 48.8079 171.158 48.8898C169.567 49.1109 166.172 51.0273 165.527 51.4204C161.676 53.7707 153.801 58.5698 149.268 61.0307C143.719 64.0445 137.264 67.0214 133.494 67.0541L133.49 67.0582ZM145.506 37.9773C145.547 37.6251 145.486 37.318 145.318 37.0641C144.425 35.6883 142.764 36.3721 141.756 37.146C140.234 38.3171 138.986 40.7781 139.52 41.7526C140.769 44.0252 145.241 40.1925 145.506 37.9814V37.9773ZM132.209 23.2279C132.209 23.0437 133.482 20.6564 135.134 17.9089C135.914 16.6108 136.244 15.4111 136.493 14.4406C137.027 12.34 136.64 12.1312 135.869 11.1238C135.738 10.9519 135.416 11.2958 135.134 11.5292C134.2 12.2949 132.768 14.1335 130.569 17.5444L126.55 23.7807H122.894C119.695 23.7807 111.086 24.0387 104.798 24.4564C106.145 25.3941 105.778 26.6512 106.3 27.9123C106.842 27.8878 107.422 27.8878 107.989 27.8632C115.137 27.5643 123.955 27.3637 124.138 27.5479C124.138 27.5479 122.527 30.5658 120.515 34.0504C118.504 37.535 114.668 44.1358 112.11 48.7219C110.449 51.6947 107.569 56.7394 104.647 61.8784C104.456 62.2141 104.284 62.5868 104.097 62.9225C105.006 62.5786 105.627 68.8681 105.627 68.8681C110.645 59.5894 115.953 50.5113 121.25 41.3882C123.261 37.9036 125.999 33.3174 127.28 31.3028C128.333 29.4765 128.937 28.5061 129.585 27.9451C130.177 27.4333 130.801 27.2244 131.85 27.0852C134.694 26.7044 148.942 26.7372 158.779 26.8436C160.154 26.86 161.447 26.9173 162.582 26.9542C162.39 25.8527 162.414 25.0215 162.679 23.9322C162.051 23.8626 161.268 23.8258 160.378 23.7971C158.767 23.7398 156.78 23.7193 154.65 23.6866C145.123 23.5351 132.217 23.5719 132.217 23.2361L132.209 23.2279ZM77.1349 55.6912C77.4409 54.9828 78.6282 54.0533 79.6768 53.4473C80.8641 52.7593 83.7447 51.793 84.3119 52.9395C85.0422 54.4095 82.8267 55.8222 81.9862 56.2522C79.4973 57.5256 76.3719 57.4642 77.1308 55.6953L77.1349 55.6912ZM93.5452 64.5318C88.7959 67.1278 85.0218 68.0696 81.5251 68.0696C76.9553 68.0696 74.3685 67.1074 73.732 64.3066C73.4831 63.2173 73.732 61.7391 74.0992 61.0062C74.4052 60.392 74.65 60.2323 75.4416 60.2118C78.2977 60.1381 79.7176 60.6049 82.59 59.4256C84.471 58.6517 86.2336 57.411 87.2332 55.9492C89.3141 52.9231 87.4128 49.5941 83.81 49.504C82.1494 49.4631 80.3541 50.0159 79.028 50.671C74.4134 52.9436 69.9048 58.0498 69.3458 62.8406C68.8113 67.4268 72.0877 70.7271 78.3018 71.8286C85.4094 72.9629 93.5167 69.9409 104.643 61.8784C106.104 60.8219 107.614 59.6754 109.184 58.4429C113.387 55.1384 114.538 52.6897 114.611 52.1451C115.011 49.2788 114.619 44.8483 113.114 46.9325C106.802 55.6584 103.183 59.2659 93.5452 64.5359V64.5318Z" fill="#FAF3EB"/>
<path d="M131.487 24.6488C135.269 18.2282 137.586 13.9492 137.607 13.3473C137.668 11.3859 134.873 9.69067 134.51 10.0346C134.384 10.1534 131.307 15.7018 126.052 24.4768L131.487 24.6488Z" fill="#FAF3EB"/>
<path d="M107.226 65.9199C104.121 71.6812 101.963 75.3706 101.518 75.6572C100.074 76.5908 97.5398 75.2477 97.6336 74.8178C97.6663 74.6704 100.433 69.8304 104.635 61.8906L107.226 65.9199Z" fill="#FAF3EB"/>
<path d="M105.186 69.6543C102.081 75.4156 99.947 79.1501 99.5064 79.4326C98.062 80.3662 95.5282 79.0231 95.622 78.5891C95.6384 78.5113 96.385 77.1641 97.6336 74.8137C98.8454 72.5329 100.551 69.5274 102.624 65.6619L105.186 69.6502V69.6543Z" fill="#FAF3EB"/>
<path d="M154.491 23.6825C159.521 23.7234 162.83 23.8299 163.181 24.0305C164.336 24.6775 164.34 26.8969 164.014 26.9911C163.904 27.0238 159.644 26.774 152.74 26.7699L154.491 23.6866V23.6825Z" fill="#FAF3EB"/>
<path d="M105.916 24.3785C100.204 24.6857 96.4746 24.8085 96.0829 25.0419C94.7936 25.8076 94.8466 28.3218 95.222 28.416C95.3485 28.4487 100.159 28.1457 107.989 27.855L105.92 24.3745L105.916 24.3785Z" fill="#FAF3EB"/>
<path d="M127.092 59.6754C127.937 58.1194 128.626 56.5593 129.381 55.208C129.965 54.1638 132.751 49.938 133.62 49.4344C135.212 48.509 137.86 50.0732 137.737 50.5359C137.709 50.6382 136.383 52.7429 134.143 56.42C133.367 57.6935 132.368 59.3724 131.56 61.2273C131.062 62.3779 130.577 63.4712 130.45 64.9453L127.092 59.6836V59.6754Z" fill="#FAF3EB"/>
<path d="M201.274 59.6754C202.118 58.1194 202.808 56.5593 203.563 55.208C204.146 54.1638 206.929 49.938 207.802 49.4344C209.393 48.509 212.041 50.0773 211.919 50.5318C211.894 50.6341 210.564 52.7389 208.324 56.4159C207.549 57.6853 206.549 59.3683 205.741 61.2232C205.244 62.3738 204.758 63.4671 204.632 64.9412L201.274 59.6795V59.6754Z" fill="#FAF3EB"/>
<path d="M276.646 60.7646C280.947 57.2144 283.668 54.7944 283.835 54.3727C284.378 53.005 282.844 51.0968 282.497 51.2443C282.379 51.2934 278.796 54.4136 272.86 59.2454L276.646 60.7605V60.7646Z" fill="#FAF3EB"/>
<path d="M219.732 38.0428C219.773 37.6906 219.712 37.3835 219.545 37.1297C218.651 35.7538 217.129 36.4295 216.195 37.2935C214.832 38.5546 213.212 40.8436 213.747 41.8182C214.995 44.0908 219.467 40.2581 219.732 38.0469" fill="#FAF3EB"/>
<path d="M131.487 24.6488C135.269 18.2282 137.586 13.9492 137.607 13.3473C137.668 11.3859 134.873 9.69067 134.51 10.0346C134.384 10.1534 131.307 15.7018 126.052 24.4768L131.487 24.6488Z" fill="#FAF3EB"/>
<path d="M107.226 65.9199C104.121 71.6812 101.963 75.3706 101.518 75.6572C100.074 76.5908 97.5398 75.2477 97.6336 74.8178C97.6663 74.6704 100.433 69.8304 104.635 61.8906L107.226 65.9199Z" fill="#FAF3EB"/>
<path d="M105.186 69.6543C102.081 75.4156 99.947 79.1501 99.5064 79.4326C98.062 80.3662 95.5282 79.0231 95.622 78.5891C95.6384 78.5113 96.385 77.1641 97.6336 74.8137C98.8454 72.5329 100.551 69.5274 102.624 65.6619L105.186 69.6502V69.6543Z" fill="#FAF3EB"/>
<path d="M154.491 23.6825C159.521 23.7234 162.83 23.8299 163.181 24.0305C164.336 24.6775 164.34 26.8969 164.014 26.9911C163.904 27.0238 159.644 26.774 152.74 26.7699L154.491 23.6866V23.6825Z" fill="#FAF3EB"/>
<path d="M105.916 24.3785C100.204 24.6857 96.4746 24.8085 96.0829 25.0419C94.7936 25.8076 94.8466 28.3218 95.222 28.416C95.3485 28.4487 100.159 28.1457 107.989 27.855L105.92 24.3745L105.916 24.3785Z" fill="#FAF3EB"/>
<path d="M127.092 59.6754C127.937 58.1194 128.626 56.5593 129.381 55.208C129.965 54.1638 132.751 49.938 133.62 49.4344C135.212 48.509 137.86 50.0732 137.737 50.5359C137.709 50.6382 136.383 52.7429 134.143 56.42C133.367 57.6935 132.368 59.3724 131.56 61.2273C131.062 62.3779 130.577 63.4712 130.45 64.9453L127.092 59.6836V59.6754Z" fill="#FAF3EB"/>
<path d="M379.189 166.938C377.234 166.987 378.258 165.259 379.083 164.477C380.278 163.342 383.448 161.135 385.007 160.664C385.819 160.419 386.496 160.329 386.676 160.894C387.161 162.437 383.926 166.827 379.193 166.942M391.135 154.092C390.368 154.363 389.973 153.413 389.238 150.616C388.324 147.131 388.871 144.932 390.882 143.831C392.527 142.914 392.527 141.812 390.699 141.079C390.332 140.895 389.968 140.895 389.601 140.895C387.957 140.895 386.129 142.361 385.031 144.748C384.118 146.767 384.118 147.5 385.215 151.717L386.313 156.484L384.852 157.217C381.878 158.707 375.345 162.446 374.521 166.065C373.88 168.874 376.565 170.701 379.984 170.467C381.396 170.373 382.951 170.005 384.489 169.321C388.088 167.72 390.882 164.37 391.433 160.333L391.8 157.397C397.194 155.214 402.845 153.081 407.982 151.042C407.676 149.891 407.64 148.769 407.84 147.602C402.095 149.883 394.608 152.864 391.144 154.088L391.135 154.092ZM383.942 145.297C382.481 146.214 380.653 147.68 378.279 149.514C372.024 154.563 367.593 157.376 364.002 158.638C363.937 158.973 363.884 159.186 363.884 159.186C363.884 160.521 363.896 161.504 363.786 162.376C365.838 161.733 368.197 160.632 370.971 159.051C375.357 156.484 382.302 151.165 385.958 147.496C387.239 146.214 387.969 145.297 387.969 144.928C387.969 142.91 387.055 142.729 383.583 145.113L383.95 145.297H383.942ZM307.337 144.576C304.722 146.337 299.993 149.514 296.202 151.893C294.187 153.159 291.6 154.727 289.442 155.677C286.581 156.942 282.86 158.13 282.705 154.833L282.522 150.984C282.416 148.781 282.281 147.295 282.101 146.259C281.281 141.493 276.087 143.258 272.921 144.896C269.906 146.456 266.25 148.806 262.97 151.353C259.877 153.752 257.123 155.571 256.939 155.386C256.576 155.018 262.423 144.384 266.809 137.599C272.109 129.266 278.943 119.393 285.337 110.958C284.048 110.164 283.019 109.046 282.33 107.695C273.219 118.89 257.731 142.205 252.741 153.187C249.815 159.788 249.452 161.438 250.55 162.54C250.917 162.904 251.827 163.273 252.377 163.273C252.928 163.273 256.947 160.521 261.333 157.036C265.622 153.728 270.085 150.755 273.198 148.781C277.515 146.05 278.466 147.545 278.205 151.533C278.123 152.786 278.144 154.133 278.233 155.288C278.727 161.692 285.259 162.29 290.205 160.333C293.085 159.194 298.304 156.054 303.004 152.778L304.338 151.721C305.126 150.554 306.872 149.396 306.619 147.709L307.023 147.422C307.19 147.107 307.598 145.583 307.345 144.572L307.337 144.576ZM275.981 115.962C266.642 115.815 259.677 115.753 259.677 115.585C259.677 115.401 260.954 113.018 262.602 110.266C263.084 109.468 263.076 108.604 263.288 107.899C264.039 105.365 263.965 104.468 263.333 103.481C263.12 103.149 262.46 103.932 261.807 104.673C260.917 105.68 259.685 107.342 258.033 109.898L254.014 116.134L251.553 116.146C251.586 116.572 251.011 119.856 251.043 119.86C251.255 119.868 251.292 119.909 251.247 120.077C251.043 120.818 249.729 123.373 247.983 126.404C245.976 129.888 242.136 136.489 239.578 141.075C237.509 144.781 233.535 151.717 229.965 158.019C229.937 158.068 229.912 158.117 229.884 158.167C231.41 157.806 233.021 157.9 234.49 158.457C238.403 151.574 243.091 143.421 248.713 133.737C250.725 130.253 253.463 125.667 254.744 123.652C256.755 120.167 257.119 119.799 259.314 119.434C261.868 119.115 273.578 119.041 283.064 119.148C283.334 118.009 283.774 117.002 284.501 116.081C281.665 116.048 278.817 116.003 275.981 115.958V115.962ZM235.922 145.297C235.535 145.542 235.118 145.825 234.678 146.14C234.274 147.655 233.543 149.191 232.768 150.342L231.532 153.052C233.976 151.132 236.289 149.15 237.934 147.496C239.211 146.214 239.945 145.297 239.945 144.928C239.945 142.91 239.031 142.729 235.559 145.113L235.926 145.297H235.922Z" fill="#FAF3EB"/>
<path d="M191.791 189.95C187.495 192.583 183.096 195.073 178.531 197.059C164.515 203.156 159.346 198.197 161.651 185.016C162.679 179.136 164.813 172.977 166.588 167.675C178.869 130.949 190.792 111.101 192.897 101.278C194.627 93.1991 188.784 90.5539 182.297 95.8034C179.053 98.4281 174.438 102.601 170.146 107.179C158.158 119.958 149.517 133.59 133.694 151.971C133.694 151.971 126.448 160.791 122.649 164.632C121.135 166.164 120.05 167.253 121.355 164.12C125.236 154.813 141.626 120.933 143.474 113.063C146.44 100.43 139.888 98.2193 130.911 102.789C126.798 104.881 122.457 108.313 119.825 110.389C103.892 122.948 92.5414 140.657 86.8986 151.947C88.6489 151.84 90.3504 152.336 91.758 153.253C92.3007 152.176 92.7903 151.234 93.1534 150.542C105.353 128.32 120.617 114.729 130.393 108.44C132.857 106.855 140.916 101.131 139.667 108.116C137.464 120.442 120.462 150.702 115.982 164.255C113.579 171.524 119.344 173.923 124.632 169.55C134.314 161.553 152.744 135.281 169.208 116.249C172.557 112.375 177.551 106.384 181.252 102.965C187.76 96.9581 189.608 97.7443 186.352 105.668C178.27 125.318 155.87 174.001 155.776 191.784C155.735 199.474 159.774 203.123 164.503 204.343C171.533 206.157 186.067 199.9 195.663 192.718C193.974 192.202 192.795 191.334 191.799 189.946" fill="#FAF3EB"/>
<path d="M87.7921 150.19C84.3402 157.036 82.2838 161.618 82.3083 162.237C82.3858 164.255 85.3766 165.795 85.7275 165.414C85.8336 165.3 88.0083 160.718 91.7539 153.253C92.2761 152.213 92.7984 151.124 93.3819 149.973L87.7961 150.19H87.7921Z" fill="#FAF3EB"/>
<path d="M193.248 194.409C199.352 190.179 203.195 187.219 203.465 186.682C204.338 184.93 202.71 182.489 202.232 182.645C202.069 182.698 196.965 186.433 188.543 192.178L193.248 194.405V194.409Z" fill="#FAF3EB"/>
<path d="M259.612 115.602C259.612 115.417 260.889 113.03 262.537 110.282C263.317 108.984 263.647 107.785 263.896 106.814C264.43 104.718 264.039 104.505 263.272 103.497C263.141 103.325 262.819 103.674 262.537 103.903C261.603 104.669 260.171 106.507 257.972 109.918L253.953 116.154H250.297C247.102 116.154 238.489 116.412 232.201 116.83C233.548 117.768 233.18 119.025 233.703 120.286C234.245 120.261 234.821 120.261 235.392 120.241C242.54 119.942 251.358 119.741 251.545 119.926C251.545 119.926 249.934 122.943 247.922 126.428C245.915 129.913 242.075 136.513 239.517 141.1C237.856 144.072 234.976 149.117 232.054 154.256C231.863 154.592 231.691 154.964 231.504 155.3C232.413 154.956 233.034 161.246 233.034 161.246C238.052 151.967 243.365 142.893 248.657 133.762C250.672 130.281 253.447 125.716 254.687 123.676C255.78 121.875 256.344 120.88 256.992 120.319C257.58 119.807 258.208 119.598 259.257 119.459C262.101 119.078 276.349 119.111 286.186 119.217C287.561 119.234 288.854 119.291 289.988 119.328C289.797 118.226 289.821 117.395 290.086 116.306C289.458 116.236 288.675 116.199 287.785 116.167C286.174 116.109 284.187 116.089 282.057 116.056C272.53 115.909 259.624 115.941 259.624 115.606M236.583 150.812C240.782 147.508 241.937 145.059 242.01 144.515C242.41 141.648 239.272 142.533 237.599 144.478C235.922 146.427 235.963 148.384 234.209 149.752C235.11 154.092 229.447 156.422 236.583 150.808V150.812Z" fill="#FAF3EB"/>
<path d="M258.889 117.022C262.672 110.602 264.989 106.323 265.01 105.721C265.071 103.76 262.276 102.064 261.913 102.408C261.786 102.527 258.706 108.075 253.455 116.85L258.889 117.022Z" fill="#FAF3EB"/>
<path d="M234.625 158.294C231.52 164.055 229.361 167.744 228.921 168.031C227.476 168.964 224.943 167.621 225.032 167.191C225.065 167.044 227.831 162.204 232.034 154.264L234.625 158.294Z" fill="#FAF3EB"/>
<path d="M232.589 162.028C229.484 167.789 227.35 171.524 226.909 171.806C225.465 172.74 222.931 171.397 223.021 170.967C223.037 170.889 223.788 169.542 225.032 167.191C226.244 164.911 227.95 161.905 230.022 158.04L232.585 162.028H232.589Z" fill="#FAF3EB"/>
<path d="M281.893 116.056C286.924 116.097 290.233 116.203 290.588 116.404C291.743 117.051 291.747 119.27 291.42 119.365C291.31 119.397 287.051 119.152 280.147 119.144L281.897 116.06L281.893 116.056Z" fill="#FAF3EB"/>
<path d="M233.319 116.756C227.607 117.063 223.878 117.186 223.486 117.42C222.197 118.185 222.25 120.7 222.625 120.794C222.752 120.826 227.562 120.523 235.392 120.233L233.323 116.752L233.319 116.756Z" fill="#FAF3EB"/>
<path d="M258.889 117.022C262.672 110.602 264.989 106.323 265.01 105.721C265.071 103.76 262.276 102.064 261.913 102.408C261.786 102.527 258.706 108.075 253.455 116.85L258.889 117.022Z" fill="#FAF3EB"/>
<path d="M234.625 158.294C231.52 164.055 229.361 167.744 228.921 168.031C227.476 168.964 224.943 167.621 225.032 167.191C225.065 167.044 227.831 162.204 232.034 154.264L234.625 158.294Z" fill="#FAF3EB"/>
<path d="M232.589 162.028C229.484 167.789 227.35 171.524 226.909 171.806C225.465 172.74 222.931 171.397 223.021 170.967C223.037 170.889 223.788 169.542 225.032 167.191C226.232 164.935 227.84 161.975 229.88 158.171C229.904 158.13 229.937 158.064 229.961 158.023L232.589 162.028Z" fill="#FAF3EB"/>
<path d="M281.893 116.056C286.924 116.097 290.233 116.203 290.588 116.404C291.743 117.051 291.747 119.27 291.421 119.365C291.31 119.397 287.153 119.25 280.135 119.164L281.897 116.06L281.893 116.056Z" fill="#FAF3EB"/>
<path d="M233.319 116.756C227.607 117.063 223.878 117.186 223.486 117.42C222.197 118.185 222.25 120.7 222.625 120.794C222.752 120.826 227.562 120.523 235.392 120.233L233.323 116.752L233.319 116.756Z" fill="#FAF3EB"/>
<path d="M191.293 158.425C186.569 161.217 184.582 161.418 185.149 159.039C186.41 153.716 195.5 145.035 200.498 145.284C202.02 145.362 204.003 148.413 202.522 150.165C201.984 150.804 200.91 151.644 198.854 153.171C198.36 153.535 192.505 157.708 191.293 158.425ZM230.283 149.502C223.466 154.985 218.822 157.839 215.073 158.924C211.894 159.841 208.002 160.267 208.663 155.562C208.899 153.859 209.703 151.668 211.099 149.138C212.722 146.189 212.926 145.469 212.196 144.736C211.099 143.634 210.368 143.819 208.357 145.469L206.529 146.935L205.615 145.1C204.517 142.901 202.51 141.8 199.952 141.8C197.94 141.8 195.565 142.533 193.007 143.999C184.051 149.134 177.841 160.32 182.407 163.072C185.696 165.091 191.726 162.888 200.131 156.471L204.517 153.171V156.287C204.517 160.779 207.896 163.203 212.168 163.048C214.962 162.945 218.422 161.668 222.976 159.039C227.362 156.504 234.266 151.181 237.93 147.516C237.938 147.504 237.958 147.5 237.962 147.483C238.313 146.022 241.557 137.582 241.52 137.635C239.264 140.878 237.411 142.795 235.233 144.904C233.796 146.296 232.217 147.95 230.288 149.502H230.283Z" fill="#FAF3EB"/>
<path d="M322.548 130.388C322.589 130.036 322.528 129.729 322.361 129.475C321.467 128.099 319.945 128.774 319.011 129.638C317.648 130.9 316.028 133.189 316.563 134.163C317.811 136.436 322.283 132.599 322.548 130.388Z" fill="#FAF3EB"/>
<path d="M281.698 116.433C286.341 110.61 289.238 106.7 289.34 106.106C289.674 104.173 287.149 102.101 286.737 102.388C286.594 102.486 282.412 107.33 276.34 115.503L281.698 116.429V116.433Z" fill="#FAF3EB"/>
<path d="M339.228 158.482C334.503 161.275 332.516 161.479 333.083 159.096C334.348 153.773 343.435 145.092 348.433 145.342C349.955 145.42 351.938 148.47 350.456 150.223C349.918 150.862 348.845 151.705 346.788 153.228C346.299 153.593 340.44 157.765 339.228 158.482ZM378.218 149.559C372.722 153.982 368.638 156.697 365.292 158.146C362.501 159.358 356.254 161.361 356.532 156.258C356.63 154.473 357.454 152.053 359.033 149.191C360.653 146.243 360.861 145.522 360.131 144.789C359.033 143.688 358.303 143.872 356.295 145.522L354.467 146.988L353.553 145.153C352.456 142.955 350.448 141.853 347.89 141.853C345.879 141.853 343.504 142.586 340.946 144.056C331.99 149.191 325.78 160.378 330.345 163.129C333.634 165.148 339.664 162.945 348.07 156.529L352.456 153.228C352.456 154.911 352.288 157.057 352.79 158.646C353.921 162.22 357.748 163.633 361.705 162.929C364.198 162.482 367.193 161.25 370.914 159.096C375.301 156.557 382.204 151.238 385.868 147.573C385.876 147.565 385.897 147.557 385.901 147.541C386.252 146.079 383.506 145.231 383.457 145.268C381.755 146.562 379.507 148.528 378.226 149.559H378.218ZM336.739 147.176C324.862 154.879 314.445 159.465 310.422 159.465C306.036 159.465 306.395 156.344 311.52 148.094C314.253 143.688 313.29 143.643 312.56 142.91C312.013 142.361 312.295 142.156 311.748 142.156C311.063 142.156 309.904 142.627 309.904 142.627C309.096 143.52 308.157 144.846 306.954 146.632C305.758 148.401 304.685 150.456 303.894 152.409C303.135 154.285 302.992 156.111 302.992 157.29C302.992 162.437 307.554 164.079 312.564 163.076C317.419 162.106 323.715 158.941 325.563 158.015C331.043 155.263 336.588 151.079 341.492 147.549C343.72 145.944 345.148 144.797 345.148 144.433C344.781 142.598 342.406 143.331 336.559 147.184H336.743L336.739 147.176ZM282.971 160.341L282.416 158.953C283.872 158.392 284.542 157.413 286.296 156.914C290.466 155.726 297.37 151.222 302.547 147.79C305.726 145.686 307.9 144.101 310.385 141.947C311.063 141.358 311.389 143.02 311.52 144.973C311.556 145.522 310.079 147.021 307.684 148.826C302.041 153.073 293.84 158.613 286.52 160.689C285.227 161.058 283.738 160.759 282.975 160.345L282.971 160.341Z" fill="#FAF3EB"/>
<path d="M304.016 152.078C304.86 150.522 305.55 148.962 306.305 147.61C306.888 146.566 309.671 142.34 310.544 141.837C312.135 140.911 314.783 142.475 314.661 142.934C314.632 143.036 313.306 145.141 311.066 148.818C310.291 150.092 309.292 151.771 308.484 153.626C307.986 154.776 307.5 155.869 307.374 157.339L304.016 152.078Z" fill="#FAF3EB"/>
<path d="M379.385 153.171C383.685 149.617 386.407 147.201 386.574 146.779C387.117 145.411 388.312 141.194 387.969 141.345C387.961 141.349 387.745 141.456 387.443 141.677C386.851 142.107 385.807 142.942 384.538 144.093C383.24 145.268 380.042 148.04 375.602 151.656L379.389 153.171H379.385Z" fill="#FAF3EB"/>
<path d="M322.471 130.445C322.511 130.093 322.45 129.786 322.283 129.532C321.389 128.156 319.867 128.832 318.933 129.696C317.57 130.957 315.95 133.246 316.485 134.225C317.734 136.497 322.205 132.66 322.471 130.449" fill="#FAF3EB"/>
<path d="M406.538 151.611C407.036 151.414 407.513 151.23 407.974 151.05C411.875 149.494 414.335 148.396 414.572 148.114C415.429 147.086 414.637 144.994 414.294 145.022C414.176 145.035 410.161 146.697 403.682 149.252L406.542 151.607L406.538 151.611Z" fill="#FAF3EB"/>
</svg>
