<svg width="258" height="46" viewBox="0 0 258 46" fill="none" xmlns="http://www.w3.org/2000/svg">
    <path
        d="M3.09637 38.8969C5.06589 37.5288 10.1399 36.8742 10.1399 36.9455C10.1399 36.9455 7.91168 40.1223 5.4623 41.7464C4.4233 42.4346 2.93364 43.2614 2.22428 41.6834C1.85708 40.8609 1.98226 39.6691 3.10054 38.8969M6.41785 43.2572C9.76436 41.1085 12.606 36.7399 13.1526 36.6559C15.8148 36.2447 22.9835 35.1787 29.8059 35.1787C37.2083 35.1787 44.0724 36.8322 44.0724 36.8322C44.1433 36.7609 44.2935 36.1691 44.0056 35.8082C42.9124 34.4359 31.1453 33.7687 29.2801 33.7687C23.1713 33.7687 16.3113 34.6835 14.5171 34.9227C14.1541 34.9731 14.2292 34.9941 15.6646 33.114C23.6386 22.3456 34.8507 2.18519 34.8507 1.3207C34.8507 0.52754 33.699 -0.122931 33.5572 0.0197526C33.4153 0.162437 23.7137 19.3157 11.5711 35.141C10.2067 35.2249 8.1537 35.4012 6.25511 35.7621C3.36342 36.3076 0.371592 37.3652 0.09202 40.8231C-0.191724 44.3315 3.51364 45.1205 6.41368 43.2614L6.41785 43.2572Z"
        fill="#FAF3EB" />
    <path
        d="M95.2466 26.4583C93.3355 27.5872 92.5344 27.6711 92.7639 26.7059C93.2729 24.5489 96.9449 21.0363 98.9645 21.137C99.5779 21.1664 100.383 22.4044 99.7824 23.1136C99.5654 23.3738 99.1314 23.7137 98.301 24.3306C98.1008 24.4775 95.7348 26.1688 95.2466 26.4583ZM111.003 22.8493C108.783 24.6412 107.131 25.7407 105.779 26.3282C104.652 26.8192 102.127 27.6292 102.24 25.5644C102.278 24.8426 102.611 23.8606 103.25 22.7024C103.905 21.5105 103.988 21.2168 103.692 20.9188C103.25 20.474 102.954 20.5495 102.14 21.2168L101.401 21.8127L101.03 21.0699C100.588 20.1802 99.774 19.7312 98.7392 19.7312C97.9255 19.7312 96.9658 20.0291 95.9351 20.6209C92.3174 22.6982 89.8054 27.2305 91.6539 28.3426C92.985 29.1609 95.4177 28.267 98.8143 25.6694L100.588 24.3306C100.588 25.0105 100.521 25.8792 100.721 26.5255C101.176 27.9733 102.724 28.544 104.322 28.2587C105.328 28.0782 106.542 27.5788 108.044 26.7059C109.818 25.6778 112.605 23.5249 114.086 22.0393C114.086 22.0393 114.099 22.0309 114.099 22.0267C114.241 21.435 113.131 21.0909 113.11 21.1077C112.422 21.6322 111.516 22.4296 110.999 22.8451L111.003 22.8493ZM94.241 21.8798C89.4424 24.9979 85.2321 26.857 83.6089 26.857C81.8355 26.857 81.9816 25.5938 84.0512 22.2533C85.157 20.4698 84.7689 20.4488 84.4727 20.155C84.2515 19.9326 84.3642 19.8487 84.143 19.8487C83.8676 19.8487 83.4003 20.0375 83.4003 20.0375C83.0748 20.3984 82.6951 20.9356 82.2069 21.6574C81.7229 22.3708 81.2889 23.206 80.9718 23.9949C80.6672 24.7545 80.6088 25.4931 80.6088 25.9715C80.6088 28.0572 82.4531 28.7203 84.4768 28.3132C86.438 27.9187 88.9834 26.6388 89.7303 26.2653C91.946 25.1532 94.1868 23.4578 96.1646 22.0267C97.0659 21.3763 97.6418 20.9146 97.6418 20.7635C97.4957 20.0208 96.536 20.3187 94.1701 21.8756H94.2452L94.241 21.8798ZM74.1703 25.8246C71.1117 27.3228 68.8751 27.7467 67.1434 27.3774C65.3742 26.9997 65.0737 25.7449 66.3297 23.592C66.9556 22.459 68.4829 21.0615 69.2924 20.751C69.8223 20.5495 70.0893 20.8936 70.0935 21.4392C70.106 22.3583 70.5358 22.6268 71.1283 22.6268C72.3843 22.6268 71.7918 20.1005 70.3898 19.5801C68.1741 18.7618 64.9277 21.3637 64.0389 24.7041C63.8261 25.4721 63.9012 26.2149 64.2016 26.8486C65.4868 29.568 69.6596 28.9427 71.9671 28.2419C72.6472 28.0362 73.3274 27.797 73.9324 27.5284C76.7406 26.2737 80.2082 24.2593 82.499 22.5513C83.4587 21.8085 84.0638 21.2126 84.0512 20.9902C83.997 20.2012 83.8676 19.5256 83.5922 19.7648C82.5866 20.6377 81.7437 21.4098 80.446 22.2449C78.343 23.6004 75.6224 25.1112 74.1661 25.8246H74.1703ZM53.6322 26.857C51.8588 26.8738 52.009 25.5938 54.0745 22.2533C54.7004 21.242 55.0217 20.688 55.126 20.3397C55.2053 20.0753 54.667 20.5327 54.5418 20.4068C54.3207 20.1844 54.1997 19.9956 53.9743 19.9956C53.749 19.9956 54.0161 19.7648 53.749 20.0124C53.3735 20.3607 52.8394 20.751 52.226 21.6616C51.2746 23.0759 50.4526 25.0776 50.4526 26.0429C50.4526 26.815 50.8698 27.4655 51.5166 27.8012C53.8492 29.0224 57.0997 27.2263 59.1652 26.1897C61.3809 25.0776 64.185 23.441 66.1795 22.0309C67.0641 21.3637 67.6733 20.9146 67.6567 20.7677C67.6274 20.5285 69.0837 19.4668 68.8459 19.5004C68.2033 19.5885 66.8305 20.3649 66.5718 20.5243C65.0153 21.477 61.8357 23.42 59.9997 24.4146C57.759 25.6358 55.151 26.8402 53.628 26.8528L53.6322 26.857ZM58.485 15.0814C58.5017 14.9387 58.4767 14.8128 58.4099 14.7121C58.0469 14.1539 57.3793 14.4309 56.9703 14.7456C56.357 15.2199 55.8521 16.2145 56.0649 16.6131C56.5698 17.5322 58.3765 15.9794 58.485 15.0856V15.0814ZM53.1148 9.10963C53.1148 9.03409 53.628 8.06888 54.2956 6.95678C54.6128 6.43221 54.7421 5.94541 54.8423 5.55093C55.0592 4.69902 54.9007 4.61509 54.5877 4.20802C54.5335 4.13668 54.4041 4.27936 54.2915 4.37169C53.9117 4.68223 53.3359 5.42503 52.4471 6.80571L50.8239 9.33205H49.3468C48.0533 9.33205 44.5774 9.43696 42.0362 9.60483C42.5787 9.98672 42.4326 10.4945 42.6454 11.0023C42.8666 10.9939 43.0961 10.9939 43.3297 10.9813C46.2173 10.8596 49.7808 10.7799 49.8559 10.8512C49.8559 10.8512 49.2049 12.0724 48.3912 13.4867C47.5776 14.8967 46.0295 17.5699 44.9947 19.429C44.3228 20.6335 43.1587 22.6772 41.9778 24.7545C41.8985 24.8888 41.8317 25.0399 41.7525 25.1784C42.1197 25.0399 42.37 27.5872 42.37 27.5872C44.398 23.8313 46.5427 20.155 48.6833 16.4579C49.497 15.0478 50.6028 13.1887 51.1202 12.3746C51.5458 11.636 51.7878 11.2415 52.0507 11.0149C52.2886 10.8092 52.5431 10.7211 52.9645 10.6666C54.112 10.5113 59.8704 10.5281 63.847 10.57C64.4019 10.5742 64.9235 10.5994 65.3825 10.6162C65.3032 10.1714 65.3158 9.83564 65.4201 9.395C65.1656 9.36562 64.8526 9.35303 64.4896 9.34044C63.8386 9.31527 63.0375 9.31107 62.1737 9.29428C58.3223 9.23553 53.1106 9.24812 53.1106 9.10963H53.1148ZM30.8617 22.2533C30.9869 21.968 31.4667 21.5903 31.8882 21.3469C32.368 21.0699 33.5322 20.6754 33.7617 21.1412C34.058 21.7372 33.1608 22.3079 32.8229 22.4841C31.8172 23.0003 30.5529 22.9752 30.8617 22.2575V22.2533ZM37.4921 25.833C35.5727 26.8864 34.0496 27.2683 32.6351 27.2683C30.7907 27.2683 29.7434 26.878 29.4847 25.7449C29.3845 25.3043 29.4847 24.7041 29.6307 24.4062C29.7559 24.1586 29.8519 24.0914 30.1732 24.083C31.329 24.0537 31.9007 24.2425 33.0607 23.7641C33.8201 23.4494 34.5337 22.95 34.9384 22.3583C35.7771 21.1329 35.0094 19.7857 33.5573 19.748C32.8855 19.7312 32.1594 19.9578 31.6253 20.2222C29.7601 21.1412 27.9408 23.2102 27.7113 25.149C27.4943 27.0081 28.8171 28.3426 31.329 28.7874C34.1999 29.249 37.4754 28.0236 41.9736 24.7587C42.562 24.3306 43.1754 23.869 43.8096 23.3696C45.5079 22.0309 45.9711 21.0405 46.0045 20.8181C46.1672 19.6598 46.0045 17.8637 45.3994 18.7072C42.8499 22.2407 41.3853 23.7012 37.4921 25.8372V25.833Z"
        fill="#FAF3EB" />
    <path
        d="M243.549 29.9038C242.76 29.9248 243.173 29.224 243.507 28.905C243.991 28.4476 245.272 27.5495 245.902 27.3607C246.232 27.26 246.503 27.2264 246.574 27.453C246.77 28.0783 245.46 29.8576 243.549 29.8996M248.377 24.7C248.068 24.8091 247.905 24.4231 247.609 23.29C247.242 21.8799 247.463 20.9861 248.273 20.5412C248.936 20.1719 248.936 19.7229 248.197 19.4291C248.051 19.3536 247.901 19.3536 247.755 19.3536C247.092 19.3536 246.353 19.9495 245.911 20.9147C245.544 21.733 245.544 22.0268 245.986 23.7348L246.428 25.6653L245.836 25.9632C244.634 26.5675 241.997 28.0783 241.663 29.5471C241.404 30.6844 242.489 31.423 243.87 31.3306C244.442 31.2929 245.068 31.1418 245.69 30.8648C247.142 30.2185 248.273 28.8589 248.494 27.2264L248.64 26.0387C250.818 25.1533 253.104 24.2888 255.178 23.4662C255.053 23.0004 255.041 22.5472 255.12 22.073C252.8 22.9962 249.775 24.2048 248.373 24.7H248.377ZM245.468 21.1413C244.876 21.5106 244.137 22.1065 243.178 22.8493C240.649 24.8931 238.859 26.0346 237.407 26.5423C237.382 26.6808 237.361 26.7648 237.361 26.7648C237.361 27.3061 237.365 27.7048 237.319 28.0573C238.15 27.7971 239.101 27.3523 240.223 26.7102C241.997 25.6694 244.801 23.5166 246.278 22.031C246.795 21.5106 247.092 21.1413 247.092 20.9903C247.092 20.1719 246.724 20.1006 245.318 21.0658L245.464 21.1413H245.468ZM214.515 20.8476C213.46 21.561 211.548 22.8493 210.017 23.8104C209.203 24.3223 208.156 24.956 207.284 25.3421C206.128 25.8541 204.626 26.3325 204.563 25.0022L204.488 23.4411C204.447 22.5472 204.392 21.9471 204.317 21.5274C203.983 19.597 201.889 20.3104 200.608 20.9777C199.389 21.6113 197.912 22.5598 196.585 23.5921C195.333 24.5657 194.223 25.3001 194.148 25.2246C194.002 25.0777 196.364 20.7678 198.137 18.0233C200.278 14.6492 203.04 10.6499 205.623 7.23804C205.102 6.91491 204.684 6.46587 204.409 5.91612C200.729 10.4484 194.47 19.8908 192.454 24.3391C191.273 27.0124 191.123 27.6796 191.57 28.1244C191.716 28.2713 192.087 28.4224 192.308 28.4224C192.529 28.4224 194.152 27.3103 195.926 25.8961C197.658 24.5574 199.46 23.3529 200.72 22.5556C202.464 21.4477 202.848 22.0562 202.744 23.6719C202.711 24.1797 202.719 24.7252 202.757 25.191C202.957 27.7845 205.594 28.0237 207.593 27.2348C208.757 26.7731 210.864 25.5016 212.763 24.1755L213.301 23.7474C213.618 23.2732 214.323 22.8032 214.223 22.1233L214.386 22.0058C214.453 21.8757 214.62 21.263 214.515 20.8518V20.8476ZM201.847 9.2608C198.075 9.20205 195.258 9.17687 195.258 9.10972C195.258 9.03418 195.776 8.06897 196.439 6.95687C196.631 6.63374 196.631 6.28122 196.714 5.99586C197.019 4.96769 196.986 4.60679 196.735 4.20811C196.648 4.07382 196.381 4.39276 196.118 4.69072C195.759 5.09779 195.258 5.76924 194.595 6.8058L192.972 9.33214H191.978C191.991 9.5084 191.757 10.8387 191.774 10.8429C191.857 10.8429 191.874 10.8639 191.857 10.931C191.774 11.229 191.244 12.2656 190.539 13.491C189.725 14.901 188.177 17.5742 187.142 19.4333C186.308 20.9315 184.701 23.7432 183.257 26.2947C183.245 26.3157 183.237 26.3367 183.224 26.3535C183.842 26.2066 184.493 26.2444 185.085 26.471C186.667 23.6845 188.561 20.3818 190.831 16.4621C191.645 15.0521 192.75 13.193 193.268 12.3789C194.082 10.9688 194.228 10.8177 195.112 10.6709C196.143 10.5408 200.875 10.5114 204.709 10.5533C204.818 10.0917 204.997 9.68465 205.289 9.31116C204.142 9.29857 202.994 9.27759 201.847 9.2608ZM185.657 21.1413C185.498 21.2379 185.331 21.3554 185.152 21.4813C184.989 22.094 184.693 22.7151 184.38 23.1809L183.879 24.2804C184.868 23.504 185.803 22.6983 186.466 22.031C186.984 21.5106 187.28 21.1413 187.28 20.9903C187.28 20.1719 186.909 20.1006 185.507 21.0658L185.653 21.1413H185.657Z"
        fill="#FAF3EB" />
    <path
        d="M167.831 39.2201C166.095 40.286 164.317 41.2932 162.473 42.0989C156.811 44.5665 154.72 42.5605 155.655 37.2225C156.072 34.843 156.932 32.3503 157.649 30.2016C162.611 15.3289 167.43 7.29664 168.277 3.31828C168.974 0.0491364 166.616 -1.02519 163.992 1.10248C162.682 2.16422 160.816 3.85544 159.081 5.71033C154.236 10.8847 150.748 16.4032 144.351 23.848C144.351 23.848 141.422 27.4193 139.886 28.9762C139.277 29.5973 138.835 30.0379 139.365 28.7706C140.933 25.002 147.556 11.2834 148.302 8.09819C149.5 2.98255 146.855 2.08868 143.224 3.93937C141.564 4.78708 139.807 6.17615 138.747 7.01547C132.308 12.1017 127.723 19.2737 125.44 23.8438C126.15 23.8018 126.834 23.999 127.406 24.3725C127.627 23.9361 127.823 23.5542 127.969 23.273C132.897 14.2756 139.064 8.77384 143.016 6.22651C144.013 5.58443 147.268 3.26792 146.763 6.09642C145.87 11.0862 139.001 23.3402 137.195 28.8293C136.222 31.7711 138.555 32.7447 140.691 30.9738C144.601 27.734 152.05 17.0957 158.705 9.39074C160.057 7.82121 162.077 5.39559 163.57 4.01071C166.199 1.57669 166.946 1.89563 165.632 5.10602C162.365 13.0627 153.314 32.7741 153.276 39.9755C153.26 43.0893 154.891 44.5665 156.802 45.0617C159.644 45.7961 165.515 43.2614 169.391 40.3531C168.711 40.1433 168.231 39.7908 167.831 39.2327"
        fill="#FAF3EB" />
    <path
        d="M52.8228 9.68459C54.35 7.08691 55.2888 5.34952 55.2972 5.10612C55.3222 4.31296 54.1914 3.62472 54.0454 3.76321C53.9953 3.80937 52.7518 6.05874 50.6279 9.60905L52.8228 9.68039V9.68459Z"
        fill="#FAF3EB" />
    <path
        d="M125.808 23.1221C124.414 25.896 123.584 27.7509 123.592 27.9985C123.621 28.8168 124.831 29.4379 124.973 29.2868C125.015 29.2407 125.895 27.3858 127.406 24.3643C127.619 23.9404 127.827 23.4998 128.061 23.0339L125.803 23.1221H125.808Z"
        fill="#FAF3EB" />
    <path
        d="M43.0169 26.3954C41.7609 28.7287 40.8888 30.2227 40.7094 30.3402C40.1252 30.7178 39.1029 30.1765 39.1404 30.0002C39.1529 29.9415 40.2712 27.9817 41.9695 24.7671L43.0169 26.3996V26.3954Z"
        fill="#FAF3EB" />
    <path
        d="M42.1948 27.9062C40.9388 30.2395 40.0792 31.7502 39.8998 31.8677C39.3156 32.2454 38.2933 31.7041 38.3308 31.5278C38.3392 31.4984 38.6396 30.9487 39.1445 30.0003C39.6327 29.077 40.3212 27.86 41.1599 26.2947L42.1948 27.9104V27.9062Z"
        fill="#FAF3EB" />
    <path
        d="M62.1153 9.29419C64.1474 9.31098 65.4869 9.35294 65.6288 9.43687C66.0961 9.70126 66.0961 10.5993 65.9668 10.6371C65.9209 10.6497 64.2017 10.549 61.4102 10.5448L62.1153 9.29419Z"
        fill="#FAF3EB" />
    <path
        d="M42.4912 9.57544C40.1837 9.70134 38.6774 9.7517 38.5188 9.84402C37.9972 10.1546 38.0181 11.1701 38.1725 11.2121C38.2226 11.2247 40.167 11.103 43.33 10.9855L42.4954 9.57544H42.4912Z"
        fill="#FAF3EB" />
    <path
        d="M51.0449 23.8689C51.3871 23.2394 51.6625 22.6058 51.9713 22.0602C52.2091 21.6363 53.3316 19.9283 53.6862 19.7227C54.3288 19.3492 55.3971 19.9829 55.3512 20.1675C55.3386 20.2095 54.8045 21.0614 53.8991 22.5512C53.5861 23.0674 53.1814 23.7472 52.8559 24.4984C52.6556 24.9642 52.4595 25.4091 52.4094 26.005L51.0533 23.8731L51.0449 23.8689Z"
        fill="#FAF3EB" />
    <path
        d="M81.022 23.8689C81.3641 23.2394 81.6395 22.6058 81.9483 22.0602C82.1862 21.6363 83.3086 19.9283 83.6633 19.7227C84.3059 19.3492 85.3741 19.9829 85.3282 20.1675C85.3157 20.2095 84.7816 21.0614 83.8761 22.5512C83.5631 23.0674 83.1584 23.7472 82.8329 24.4984C82.6326 24.9642 82.4365 25.4091 82.3865 26.005L81.0303 23.8731L81.022 23.8689Z"
        fill="#FAF3EB" />
    <path
        d="M111.474 24.3095C113.21 22.8701 114.312 21.8923 114.378 21.7202C114.6 21.1663 113.978 20.3941 113.836 20.4529C113.79 20.4739 112.342 21.737 109.943 23.6926L111.474 24.3053V24.3095Z"
        fill="#FAF3EB" />
    <path
        d="M168.415 41.0246C170.881 39.3124 172.434 38.1122 172.542 37.8982C172.897 37.1889 172.237 36.1985 172.045 36.2657C171.979 36.2867 169.917 37.8016 166.512 40.1266L168.415 41.0288V41.0246Z"
        fill="#FAF3EB" />
    <path
        d="M88.4786 15.1065C88.4953 14.9639 88.4703 14.838 88.4035 14.7372C88.0405 14.1791 87.4271 14.4519 87.0515 14.8044C86.5008 15.3164 85.8456 16.2438 86.0626 16.6383C86.5675 17.5573 88.3743 16.0046 88.4828 15.1107"
        fill="#FAF3EB" />
    <path
        d="M52.8228 9.68459C54.35 7.08691 55.2888 5.34952 55.2972 5.10612C55.3222 4.31296 54.1914 3.62472 54.0454 3.76321C53.9953 3.80937 52.7518 6.05874 50.6279 9.60905L52.8228 9.68039V9.68459Z"
        fill="#FAF3EB" />
    <path
        d="M43.0169 26.3954C41.7609 28.7287 40.8888 30.2227 40.7094 30.3402C40.1252 30.7178 39.1029 30.1765 39.1404 30.0002C39.1529 29.9415 40.2712 27.9817 41.9695 24.7671L43.0169 26.3996V26.3954Z"
        fill="#FAF3EB" />
    <path
        d="M42.1948 27.9062C40.9388 30.2395 40.0792 31.7502 39.8998 31.8677C39.3156 32.2454 38.2933 31.7041 38.3308 31.5278C38.3392 31.4984 38.6396 30.9487 39.1445 30.0003C39.6327 29.077 40.3212 27.86 41.1599 26.2947L42.1948 27.9104V27.9062Z"
        fill="#FAF3EB" />
    <path
        d="M62.1153 9.29419C64.1474 9.31098 65.4869 9.35294 65.6288 9.43687C66.0961 9.70126 66.0961 10.5993 65.9668 10.6371C65.9209 10.6497 64.2017 10.549 61.4102 10.5448L62.1153 9.29419Z"
        fill="#FAF3EB" />
    <path
        d="M42.4912 9.57544C40.1837 9.70134 38.6774 9.7517 38.5188 9.84402C37.9972 10.1546 38.0181 11.1701 38.1725 11.2121C38.2226 11.2247 40.167 11.103 43.33 10.9855L42.4954 9.57544H42.4912Z"
        fill="#FAF3EB" />
    <path
        d="M51.0449 23.8689C51.3871 23.2394 51.6625 22.6058 51.9713 22.0602C52.2091 21.6363 53.3316 19.9283 53.6862 19.7227C54.3288 19.3492 55.3971 19.9829 55.3512 20.1675C55.3386 20.2095 54.8045 21.0614 53.8991 22.5512C53.5861 23.0674 53.1814 23.7472 52.8559 24.4984C52.6556 24.9642 52.4595 25.4091 52.4094 26.005L51.0533 23.8731L51.0449 23.8689Z"
        fill="#FAF3EB" />
    <path
        d="M195.229 9.11378C195.229 9.03824 195.742 8.07303 196.41 6.96093C196.727 6.43636 196.86 5.94956 196.956 5.55508C197.173 4.70737 197.015 4.61924 196.702 4.21217C196.647 4.14083 196.518 4.28351 196.405 4.37584C196.026 4.68639 195.45 5.42918 194.561 6.80986L192.938 9.3362H191.461C190.167 9.3362 186.687 9.44112 184.15 9.60898C184.693 9.99087 184.547 10.4987 184.755 11.0064C184.976 10.998 185.206 10.998 185.44 10.9855C188.327 10.8638 191.891 10.784 191.966 10.8554C191.966 10.8554 191.315 12.0766 190.501 13.4908C189.687 14.9009 188.139 17.5741 187.104 19.4332C186.433 20.6376 185.268 22.6813 184.088 24.7587C184.012 24.8929 183.942 25.044 183.866 25.1825C184.234 25.044 184.484 27.5913 184.484 27.5913C186.512 23.8354 188.661 20.1592 190.797 16.462C191.611 15.052 192.733 13.2055 193.234 12.3787C193.676 11.6485 193.902 11.2456 194.165 11.019C194.403 10.8134 194.657 10.7253 195.079 10.6707C196.226 10.5154 201.984 10.5322 205.961 10.5742C206.516 10.5784 207.038 10.6036 207.497 10.6204C207.417 10.1755 207.43 9.83979 207.538 9.39915C207.284 9.36977 206.967 9.35718 206.608 9.34459C205.957 9.31942 205.156 9.31522 204.292 9.29843C200.44 9.23968 195.229 9.25227 195.229 9.11378ZM185.928 23.3738C187.626 22.0351 188.089 21.0447 188.123 20.8223C188.285 19.664 187.017 20.0207 186.341 20.8055C185.661 21.5944 185.677 22.3876 184.968 22.9415C185.331 24.6999 183.044 25.6441 185.928 23.3696V23.3738Z"
        fill="#FAF3EB" />
    <path
        d="M194.937 9.68869C196.464 7.08681 197.403 5.35362 197.411 5.11442C197.436 4.32126 196.305 3.63302 196.159 3.77151C196.109 3.81767 194.866 6.06704 192.742 9.61735L194.937 9.68869Z"
        fill="#FAF3EB" />
    <path
        d="M185.135 26.4037C183.879 28.737 183.007 30.231 182.828 30.3485C182.244 30.7261 181.221 30.1848 181.259 30.0085C181.271 29.9498 182.39 27.99 184.088 24.7754L185.135 26.4079V26.4037Z"
        fill="#FAF3EB" />
    <path
        d="M184.313 27.9145C183.057 30.2478 182.197 31.7585 182.018 31.876C181.434 32.2537 180.411 31.7124 180.449 31.5361C180.457 31.5067 180.758 30.957 181.263 30.0086C181.751 29.0853 182.439 27.8683 183.278 26.303L184.313 27.9187V27.9145Z"
        fill="#FAF3EB" />
    <path
        d="M204.234 9.29834C206.266 9.31513 207.605 9.35709 207.747 9.44102C208.215 9.70541 208.215 10.6035 208.085 10.6412C208.039 10.6538 206.32 10.5531 203.529 10.5531L204.234 9.30254V9.29834Z"
        fill="#FAF3EB" />
    <path
        d="M184.605 9.57959C182.298 9.70549 180.791 9.75585 180.633 9.84817C180.111 10.1587 180.132 11.1743 180.286 11.2163C180.337 11.2288 182.281 11.1071 185.444 10.9896L184.609 9.57959H184.605Z"
        fill="#FAF3EB" />
    <path
        d="M194.937 9.68869C196.464 7.08681 197.403 5.35362 197.411 5.11442C197.436 4.32126 196.305 3.63302 196.159 3.77151C196.109 3.81767 194.866 6.06704 192.742 9.61735L194.937 9.68869Z"
        fill="#FAF3EB" />
    <path
        d="M185.135 26.4037C183.879 28.737 183.007 30.231 182.828 30.3485C182.244 30.7261 181.221 30.1848 181.259 30.0085C181.271 29.9498 182.39 27.99 184.088 24.7754L185.135 26.4079V26.4037Z"
        fill="#FAF3EB" />
    <path
        d="M184.313 27.9146C183.057 30.2479 182.197 31.7586 182.018 31.8761C181.434 32.2538 180.411 31.7125 180.449 31.5362C180.457 31.5068 180.758 30.9571 181.263 30.0087C181.747 29.0938 182.398 27.8978 183.22 26.3534C183.228 26.3366 183.241 26.3115 183.253 26.2947L184.313 27.9188V27.9146Z"
        fill="#FAF3EB" />
    <path
        d="M204.234 9.29834C206.266 9.31513 207.605 9.35709 207.747 9.44102C208.214 9.70541 208.214 10.6035 208.085 10.6412C208.039 10.6538 206.362 10.5951 203.524 10.5573L204.238 9.29834H204.234Z"
        fill="#FAF3EB" />
    <path
        d="M184.605 9.57959C182.298 9.70549 180.791 9.75585 180.633 9.84817C180.111 10.1587 180.132 11.1743 180.286 11.2163C180.337 11.2288 182.281 11.1071 185.444 10.9896L184.609 9.57959H184.605Z"
        fill="#FAF3EB" />
    <path
        d="M167.626 26.4539C165.715 27.5828 164.914 27.6668 165.143 26.7015C165.653 24.5445 169.329 21.032 171.344 21.1327C171.957 21.162 172.763 22.4 172.162 23.1093C171.945 23.3694 171.511 23.7094 170.681 24.3263C170.48 24.4731 168.114 26.1644 167.626 26.4539ZM183.382 22.8407C180.628 25.0607 178.751 26.2189 177.236 26.6554C175.951 27.0289 174.378 27.2009 174.645 25.2915C174.741 24.6032 175.066 23.7136 175.629 22.6896C176.285 21.4978 176.368 21.204 176.072 20.9061C175.629 20.4612 175.333 20.5326 174.52 21.204L173.781 21.7999L173.41 21.0571C172.967 20.1675 172.154 19.7184 171.119 19.7184C170.305 19.7184 169.345 20.0164 168.315 20.6081C164.697 22.6854 162.185 27.2177 164.034 28.3298C165.365 29.1481 167.797 28.2543 171.194 25.6566L172.967 24.3179V25.581C172.967 27.3982 174.332 28.3802 176.059 28.3172C177.19 28.2753 178.588 27.7591 180.428 26.6931C182.201 25.665 184.989 23.5121 186.47 22.0265C186.474 22.0265 186.483 22.0181 186.483 22.014C186.625 21.4222 187.935 18.0062 187.922 18.0272C187.013 19.3407 186.262 20.1171 185.381 20.969C184.801 21.5313 184.163 22.2028 183.382 22.8323V22.8407Z"
        fill="#FAF3EB" />
    <path
        d="M220.662 15.1024C220.678 14.9597 220.653 14.8338 220.587 14.7331C220.224 14.1749 219.61 14.4477 219.235 14.8002C218.684 15.3122 218.029 16.2397 218.246 16.6341C218.751 17.5532 220.557 16.0005 220.666 15.1066"
        fill="#FAF3EB" />
    <path
        d="M204.154 9.4494C206.032 7.09091 207.2 5.5088 207.242 5.2696C207.38 4.48483 206.357 3.64552 206.19 3.76302C206.132 3.80499 204.442 5.76479 201.989 9.0759L204.154 9.4494Z"
        fill="#FAF3EB" />
    <path
        d="M227.4 26.4751C225.489 27.6039 224.688 27.6879 224.918 26.7227C225.427 24.5656 229.103 21.0531 231.118 21.1538C231.732 21.1832 232.537 22.4212 231.936 23.1304C231.719 23.3906 231.285 23.7305 230.455 24.3474C230.255 24.4943 227.889 26.1855 227.4 26.4751ZM243.157 22.866C240.937 24.6579 239.284 25.7532 237.932 26.345C236.806 26.836 234.281 27.6459 234.394 25.5812C234.431 24.8594 234.765 23.8774 235.404 22.7191C236.059 21.5273 236.142 21.2335 235.846 20.9356C235.404 20.4907 235.107 20.5621 234.294 21.2335L233.555 21.8294L233.184 21.0866C232.741 20.197 231.928 19.7479 230.893 19.7479C230.079 19.7479 229.12 20.0459 228.089 20.6376C224.471 22.7149 221.959 27.2472 223.808 28.3593C225.139 29.1777 227.571 28.2838 230.968 25.6861L232.741 24.3474C232.741 25.0272 232.675 25.8959 232.875 26.5422C233.334 27.99 234.878 28.5608 236.476 28.2754C237.482 28.0949 238.696 27.5955 240.198 26.7227C241.972 25.6945 244.759 23.5416 246.24 22.0561C246.244 22.0561 246.253 22.0477 246.253 22.0435C246.395 21.4517 245.285 21.1076 245.264 21.1244C244.575 21.649 243.67 22.4463 243.152 22.8618L243.157 22.866ZM226.395 21.9008C221.596 25.0188 217.386 26.8779 215.763 26.8779C213.989 26.8779 214.135 25.6148 216.205 22.2743C217.311 20.4907 216.923 20.4697 216.626 20.176C216.405 19.9536 216.518 19.8696 216.297 19.8696C216.021 19.8696 215.554 20.0585 215.554 20.0585C215.229 20.4194 214.849 20.9565 214.361 21.6784C213.877 22.3918 213.443 23.2269 213.126 24.0159C212.821 24.7754 212.763 25.514 212.763 25.9925C212.763 28.0782 214.607 28.7412 216.631 28.3341C218.592 27.9397 221.137 26.6597 221.884 26.2862C224.1 25.1741 226.341 23.4787 228.318 22.0477C229.22 21.3972 229.796 20.9356 229.796 20.7845C229.649 20.0417 228.69 20.3397 226.324 21.8966H226.399L226.395 21.9008ZM204.667 27.2304L204.442 26.6681C205.03 26.4415 205.302 26.0428 206.011 25.8414C207.697 25.3588 210.484 23.5374 212.579 22.1484C213.864 21.2965 214.74 20.6544 215.746 19.7815C216.021 19.5423 216.151 20.2138 216.205 21.0069C216.222 21.2293 215.625 21.8336 214.653 22.568C212.374 24.2886 209.057 26.5296 206.099 27.3731C205.577 27.52 204.972 27.4025 204.667 27.2346V27.2304Z"
        fill="#FAF3EB" />
    <path
        d="M213.172 23.8858C213.514 23.2563 213.789 22.6226 214.098 22.077C214.336 21.6532 215.458 19.9452 215.813 19.7396C216.456 19.3661 217.524 19.9997 217.478 20.1844C217.465 20.2264 216.931 21.0783 216.026 22.568C215.713 23.0842 215.308 23.7641 214.983 24.5153C214.782 24.9811 214.586 25.4259 214.536 26.0176L213.18 23.8858H213.172Z"
        fill="#FAF3EB" />
    <path
        d="M243.628 24.3264C245.364 22.8869 246.465 21.9091 246.532 21.7371C246.753 21.1831 247.233 19.4751 247.096 19.5381C247.091 19.5381 247.004 19.5842 246.883 19.6724C246.645 19.8444 246.223 20.1843 245.71 20.6502C245.184 21.1286 243.895 22.2491 242.101 23.7137L243.632 24.3264H243.628Z"
        fill="#FAF3EB" />
    <path
        d="M220.632 15.1275C220.649 14.9849 220.624 14.859 220.557 14.7582C220.194 14.2001 219.581 14.4729 219.205 14.8254C218.655 15.3374 217.999 16.2648 218.216 16.6593C218.721 17.5783 220.528 16.0256 220.637 15.1317"
        fill="#FAF3EB" />
    <path
        d="M254.598 23.697C254.799 23.6172 254.995 23.5417 255.178 23.4703C256.756 22.8409 257.749 22.396 257.845 22.2827C258.191 21.8672 257.87 21.0195 257.732 21.0321C257.686 21.0363 256.063 21.712 253.443 22.7443L254.598 23.697Z"
        fill="#FAF3EB" />
</svg>